<svg aria-hidden="true" style="position: absolute; width: 0; height: 0; overflow: hidden;" version="1.1" xmlns="http://www.w3.org/2000/svg" xmlns:xlink="http://www.w3.org/1999/xlink">
<defs>
<symbol id="chevron-down" viewBox="0 0 32 32">
<path fill="none" stroke="#0050ef" style="stroke: var(--color1, #0050ef)" stroke-linejoin="round" stroke-linecap="round" stroke-miterlimit="4" stroke-width="3.5556" d="M8 12l8 8 8-8"></path>
</symbol>
<symbol id="logo-footer-text" viewBox="0 0 115 32">
<path fill="#fff" style="fill: var(--color2, #fff)" d="M10.093 25.228c-1.872 0-3.687-0.265-5.445-0.797-1.734-0.532-3.109-1.237-4.126-2.116l1.561-3.502c0.994 0.786 2.208 1.433 3.641 1.941 1.456 0.485 2.913 0.729 4.369 0.729 1.803 0 3.144-0.289 4.023-0.867 0.901-0.579 1.352-1.341 1.352-2.288 0-0.694-0.255-1.26-0.763-1.7-0.485-0.463-1.109-0.821-1.872-1.075s-1.803-0.543-3.12-0.867c-1.85-0.439-3.353-0.878-4.507-1.318-1.168-0.46-2.156-1.157-2.942-2.039l-0.007-0.008c-0.808-0.947-1.213-2.219-1.213-3.814 0-1.34 0.358-2.554 1.075-3.641 0.74-1.11 1.838-1.988 3.294-2.635 1.479-0.647 3.282-0.971 5.409-0.971 1.479 0 2.936 0.185 4.37 0.555 1.433 0.369 2.67 0.902 3.709 1.595l-1.422 3.502c-0.957-0.575-2.062-1.059-3.229-1.396l-0.099-0.024c-1.157-0.324-2.277-0.486-3.365-0.486-1.779 0-3.109 0.301-3.987 0.901-0.856 0.601-1.283 1.399-1.283 2.393 0 0.693 0.242 1.26 0.728 1.699 0.508 0.439 1.145 0.786 1.907 1.040s1.803 0.543 3.12 0.867c1.804 0.416 3.282 0.856 4.439 1.317 1.173 0.447 2.163 1.147 2.94 2.038l0.007 0.009c0.832 0.924 1.248 2.173 1.248 3.745 0 1.341-0.369 2.555-1.11 3.641-0.716 1.087-1.814 1.954-3.294 2.601s-3.282 0.971-5.409 0.971zM34.224 6.156c1.803 0 3.41 0.393 4.82 1.179 1.423 0.782 2.568 1.915 3.342 3.286l0.022 0.042c0.809 1.434 1.213 3.087 1.213 4.959s-0.404 3.537-1.213 4.994c-0.796 1.413-1.941 2.546-3.32 3.306l-0.044 0.022c-1.41 0.786-3.017 1.179-4.82 1.179-2.496 0-4.473-0.832-5.929-2.496v8.98h-4.335v-25.243h4.126v2.427c0.695-0.854 1.58-1.528 2.592-1.96l0.044-0.017c1.063-0.439 2.231-0.658 3.502-0.658zM33.739 21.413c1.594 0 2.9-0.532 3.918-1.595 1.040-1.063 1.561-2.461 1.561-4.196s-0.521-3.132-1.561-4.196c-1.018-1.063-2.323-1.595-3.919-1.595-1.040 0-1.977 0.242-2.809 0.728-0.832 0.463-1.49 1.133-1.977 2.011-0.485 0.878-0.728 1.895-0.728 3.051s0.242 2.173 0.728 3.052c0.468 0.857 1.14 1.551 1.952 2.032l0.024 0.013c0.832 0.463 1.768 0.694 2.809 0.694zM54.568 6.156c2.728 0 4.809 0.658 6.242 1.977 1.456 1.295 2.185 3.259 2.185 5.895v10.853h-4.092v-2.254c-0.532 0.809-1.295 1.434-2.288 1.872-0.971 0.417-2.15 0.624-3.537 0.624s-2.6-0.231-3.641-0.693c-1.040-0.485-1.85-1.145-2.427-1.977-0.555-0.856-0.832-1.815-0.832-2.878 0-1.664 0.613-2.993 1.838-3.988 1.248-1.017 3.202-1.525 5.861-1.525h4.784v-0.278c0-1.295-0.393-2.288-1.179-2.982-0.762-0.693-1.906-1.040-3.432-1.040-1.040 0-2.069 0.162-3.086 0.485-0.994 0.325-1.838 0.775-2.532 1.353l-1.699-3.156c0.971-0.74 2.139-1.306 3.502-1.699 1.273-0.375 2.735-0.59 4.247-0.59 0.031 0 0.062 0 0.092 0l-0.005-0zM53.978 21.968c1.087 0 2.046-0.243 2.878-0.729 0.829-0.486 1.461-1.231 1.794-2.121l0.009-0.028v-2.15h-4.473c-2.496 0-3.745 0.821-3.745 2.462 0 0.786 0.312 1.411 0.936 1.872s1.49 0.694 2.6 0.694zM77.222 25.125c-1.919 0-3.642-0.405-5.167-1.214-1.527-0.809-2.716-1.931-3.572-3.365-0.855-1.456-1.283-3.097-1.283-4.923s0.428-3.456 1.283-4.889c0.856-1.434 2.034-2.554 3.537-3.365 1.526-0.808 3.259-1.213 5.201-1.213 1.826 0 3.421 0.37 4.784 1.11 1.388 0.74 2.427 1.803 3.121 3.191l-3.329 1.941c-0.532-0.856-1.202-1.49-2.011-1.907-0.786-0.439-1.653-0.658-2.6-0.658-1.618 0-2.96 0.531-4.023 1.595-1.063 1.040-1.594 2.439-1.594 4.197 0 1.755 0.52 3.166 1.56 4.23 1.063 1.040 2.416 1.561 4.058 1.561 0.947 0 1.815-0.208 2.6-0.624 0.809-0.439 1.479-1.086 2.011-1.942l3.328 1.942c-0.716 1.387-1.767 2.462-3.154 3.225-1.364 0.741-2.948 1.11-4.751 1.11zM106.011 15.727c0 0.301-0.023 0.728-0.070 1.283h-14.529c0.254 1.364 0.913 2.45 1.977 3.259 1.086 0.786 2.427 1.179 4.022 1.179 2.034 0 3.71-0.67 5.028-2.011l2.324 2.67c-0.833 0.995-1.884 1.746-3.156 2.255s-2.704 0.762-4.3 0.762c-2.034 0-3.825-0.404-5.374-1.213s-2.752-1.931-3.607-3.365c-0.832-1.456-1.248-3.097-1.248-4.923 0-1.803 0.404-3.421 1.213-4.855 0.82-1.436 1.986-2.591 3.388-3.375l0.045-0.023c1.456-0.809 3.098-1.214 4.924-1.214 1.803 0 3.409 0.405 4.82 1.214 1.422 0.783 2.559 1.931 3.307 3.32l0.021 0.044c0.809 1.433 1.214 3.098 1.214 4.993zM96.649 9.624c-1.387 0-2.566 0.416-3.537 1.248-0.947 0.809-1.526 1.896-1.734 3.259h10.507c-0.186-1.34-0.752-2.426-1.7-3.259s-2.127-1.248-3.536-1.248zM111.562 25.125c-0.786 0-1.456-0.267-2.011-0.798-0.555-0.555-0.832-1.249-0.832-2.081 0-0.855 0.266-1.549 0.797-2.080 0.555-0.532 1.237-0.798 2.046-0.798s1.479 0.266 2.011 0.798c0.554 0.531 0.832 1.225 0.832 2.080 0 0.832-0.278 1.526-0.832 2.081-0.555 0.531-1.226 0.797-2.011 0.797z"></path>
</symbol>
<symbol id="logo-footer" viewBox="0 0 32 32">
<path fill="#fff" style="fill: var(--color2, #fff)" d="M14.769 7.385c0 4.078-3.306 7.385-7.385 7.385s-7.385-3.306-7.385-7.385c0-4.078 3.306-7.385 7.385-7.385s7.385 3.306 7.385 7.385z"></path>
<path fill="#fff" style="fill: var(--color2, #fff)" d="M32 7.385c0 4.078-3.306 7.385-7.385 7.385s-7.385-3.306-7.385-7.385c0-4.078 3.306-7.385 7.385-7.385s7.385 3.306 7.385 7.385z"></path>
<path fill="#fff" style="fill: var(--color2, #fff)" d="M14.769 24.615c0 4.078-3.306 7.385-7.385 7.385s-7.385-3.306-7.385-7.385c0-4.078 3.306-7.385 7.385-7.385s7.385 3.306 7.385 7.385z"></path>
<path fill="#fff" style="fill: var(--color2, #fff)" d="M32 24.615c0 4.078-3.306 7.385-7.385 7.385s-7.385-3.306-7.385-7.385c0-4.078 3.306-7.385 7.385-7.385s7.385 3.306 7.385 7.385z"></path>
</symbol>
<symbol id="logo-header-text" viewBox="0 0 115 32">
<path d="M10.764 25.447c-1.862 0-3.667-0.263-5.414-0.793-1.724-0.528-3.092-1.229-4.103-2.103l1.552-3.482c0.989 0.783 2.195 1.425 3.62 1.932 1.295 0.454 2.787 0.718 4.341 0.723h0.002c1.793 0 3.127-0.287 4-0.861 0.896-0.575 1.345-1.334 1.345-2.276 0-0.689-0.253-1.251-0.759-1.689-0.483-0.46-1.104-0.816-1.862-1.069-0.724-0.25-1.762-0.547-2.815-0.803l-0.287-0.059c-1.84-0.436-3.334-0.873-4.483-1.309-1.161-0.457-2.143-1.151-2.924-2.027l-0.007-0.008c-0.804-0.943-1.207-2.207-1.207-3.792 0-1.334 0.358-2.541 1.069-3.622 0.736-1.103 1.828-1.975 3.276-2.618 1.472-0.644 3.264-0.967 5.379-0.967 1.471 0 2.919 0.183 4.345 0.551s2.655 0.896 3.689 1.585l-1.414 3.482c-0.951-0.572-2.050-1.054-3.211-1.389l-0.098-0.024c-1.001-0.299-2.151-0.474-3.341-0.481l-0.004-0c-1.769 0-3.091 0.298-3.965 0.896-0.849 0.596-1.276 1.391-1.276 2.378 0 0.691 0.241 1.254 0.724 1.69 0.506 0.436 1.137 0.781 1.897 1.034 0.758 0.253 1.793 0.54 3.103 0.863 1.793 0.413 3.264 0.849 4.413 1.309 1.149 0.436 2.127 1.116 2.931 2.035 0.829 0.919 1.242 2.16 1.242 3.724 0 1.334-0.368 2.54-1.104 3.62-0.713 1.081-1.804 1.942-3.276 2.586-1.471 0.643-3.264 0.964-5.379 0.964zM34.756 6.484c1.793 0 3.391 0.391 4.793 1.172 1.415 0.778 2.554 1.905 3.324 3.269l0.022 0.042c0.803 1.425 1.206 3.069 1.206 4.931s-0.403 3.516-1.207 4.964c-0.791 1.405-1.929 2.531-3.3 3.287l-0.044 0.022c-1.402 0.783-2.999 1.172-4.793 1.172-2.483 0-4.448-0.828-5.895-2.481v8.929h-4.31v-25.101h4.102v2.415c0.713-0.873 1.585-1.529 2.621-1.965 1.057-0.436 2.218-0.655 3.482-0.655zM34.273 21.655c1.585 0 2.886-0.528 3.897-1.585 1.034-1.057 1.551-2.448 1.551-4.173 0-1.724-0.516-3.113-1.551-4.172-1.011-1.057-2.31-1.585-3.897-1.585-0.024-0-0.052-0.001-0.079-0.001-0.999 0-1.935 0.269-2.739 0.739l0.026-0.014c-0.835 0.473-1.504 1.153-1.951 1.972l-0.013 0.026c-0.484 0.874-0.726 1.885-0.726 3.034s0.241 2.161 0.724 3.034c0.483 0.873 1.137 1.552 1.965 2.035 0.829 0.46 1.76 0.689 2.793 0.689zM54.986 6.484c2.711 0 4.781 0.655 6.205 1.965 1.449 1.287 2.173 3.242 2.173 5.862v10.793h-4.068v-2.241c-0.529 0.804-1.287 1.425-2.276 1.862-0.966 0.413-2.138 0.62-3.517 0.62s-2.586-0.23-3.62-0.689c-1.033-0.483-1.839-1.137-2.413-1.964-0.519-0.79-0.828-1.758-0.828-2.799 0-0.022 0-0.045 0-0.067l-0 0.003c0-1.655 0.609-2.977 1.827-3.965 1.242-1.012 3.185-1.517 5.827-1.517h4.759v-0.276c0-1.287-0.391-2.275-1.172-2.964-0.759-0.691-1.897-1.036-3.414-1.036-1.097 0.001-2.152 0.178-3.14 0.503l0.071-0.020c-0.989 0.323-1.827 0.771-2.516 1.345l-1.689-3.137c0.964-0.736 2.125-1.299 3.482-1.69 1.356-0.39 2.793-0.586 4.31-0.586zM54.4 22.208c1.079 0 2.033-0.243 2.861-0.724 0.824-0.484 1.453-1.224 1.784-2.11l0.009-0.028v-2.138h-4.448c-2.483 0-3.724 0.816-3.724 2.448 0 0.781 0.31 1.402 0.931 1.862 0.62 0.46 1.484 0.689 2.586 0.689zM77.511 25.344c-1.908 0-3.622-0.401-5.137-1.207-1.486-0.78-2.692-1.919-3.53-3.304l-0.022-0.040c-0.851-1.447-1.276-3.079-1.276-4.896 0-1.815 0.425-3.436 1.276-4.861 0.854-1.42 2.046-2.558 3.469-3.322l0.048-0.023c1.517-0.803 3.241-1.206 5.172-1.206 1.815 0 3.401 0.368 4.756 1.104 1.35 0.713 2.418 1.803 3.085 3.13l0.019 0.041-3.311 1.932c-0.528-0.851-1.194-1.484-1.999-1.897-0.783-0.436-1.644-0.655-2.586-0.655-1.609 0-2.943 0.528-4 1.585-1.057 1.034-1.585 2.425-1.585 4.172s0.516 3.149 1.552 4.207c1.056 1.036 2.4 1.552 4.033 1.552 0.018 0 0.040 0 0.061 0 0.923 0 1.793-0.23 2.554-0.636l-0.029 0.014c0.804-0.436 1.471-1.079 1.999-1.93l3.311 1.93c-0.711 1.371-1.786 2.469-3.098 3.188l-0.039 0.020c-1.356 0.736-2.931 1.103-4.723 1.103zM106.137 16c0 0.3-0.023 0.724-0.070 1.277h-14.445c0.253 1.356 0.909 2.436 1.965 3.241 1.081 0.781 2.415 1.172 4 1.172 2.022 0 3.689-0.668 4.999-2l2.31 2.655c-0.83 0.98-1.884 1.746-3.085 2.222l-0.053 0.018c-1.264 0.506-2.689 0.759-4.275 0.759-2.022 0-3.804-0.401-5.344-1.207-1.54-0.803-2.735-1.919-3.585-3.344-0.829-1.447-1.242-3.079-1.242-4.896 0-1.792 0.403-3.401 1.207-4.826 0.815-1.429 1.975-2.577 3.369-3.356l0.044-0.023c1.447-0.804 3.079-1.207 4.896-1.207 1.792 0 3.389 0.403 4.791 1.207 1.415 0.779 2.546 1.921 3.289 3.302l0.021 0.043c0.804 1.424 1.207 3.079 1.207 4.964zM96.828 9.933c-1.38 0-2.553 0.413-3.517 1.241-0.943 0.804-1.517 1.885-1.724 3.241h10.447c-0.183-1.332-0.748-2.415-1.69-3.241-0.943-0.828-2.113-1.241-3.516-1.241zM111.655 25.344c-0.781 0-1.449-0.263-2-0.793-0.553-0.553-0.828-1.241-0.828-2.068 0-0.851 0.265-1.54 0.794-2.068 0.551-0.529 1.229-0.794 2.033-0.794s1.471 0.265 2 0.794c0.553 0.528 0.828 1.217 0.828 2.068 0 0.828-0.276 1.517-0.829 2.068-0.55 0.529-1.217 0.793-1.999 0.793z"></path>
</symbol>
<symbol id="logo-header" viewBox="0 0 32 32">
<path fill="#0050ef" style="fill: var(--color1, #0050ef)" d="M14.769 7.385c0 4.078-3.306 7.385-7.385 7.385s-7.385-3.306-7.385-7.385c0-4.078 3.306-7.385 7.385-7.385s7.385 3.306 7.385 7.385z"></path>
<path fill="#0050ef" style="fill: var(--color1, #0050ef)" d="M32 7.385c0 4.078-3.306 7.385-7.385 7.385s-7.385-3.306-7.385-7.385c0-4.078 3.306-7.385 7.385-7.385s7.385 3.306 7.385 7.385z"></path>
<path fill="#0050ef" style="fill: var(--color1, #0050ef)" d="M14.769 24.615c0 4.078-3.306 7.385-7.385 7.385s-7.385-3.306-7.385-7.385c0-4.078 3.306-7.385 7.385-7.385s7.385 3.306 7.385 7.385z"></path>
<path fill="#0050ef" style="fill: var(--color1, #0050ef)" d="M32 24.615c0 4.078-3.306 7.385-7.385 7.385s-7.385-3.306-7.385-7.385c0-4.078 3.306-7.385 7.385-7.385s7.385 3.306 7.385 7.385z"></path>
</symbol>
<symbol id="mail" viewBox="0 0 32 32">
<path fill="none" stroke="#888" style="stroke: var(--color3, #888)" stroke-linejoin="round" stroke-linecap="round" stroke-miterlimit="4" stroke-width="2.1818" d="M5.334 5.334h21.332c1.468 0 2.668 1.2 2.668 2.666v16c-0.005 1.471-1.197 2.662-2.667 2.666h-21.333c-1.471-0.004-2.663-1.195-2.668-2.666v-16c0-1.466 1.2-2.666 2.668-2.666z"></path>
<path fill="none" stroke="#888" style="stroke: var(--color3, #888)" stroke-linejoin="round" stroke-linecap="round" stroke-miterlimit="4" stroke-width="2.1818" d="M29.334 8l-13.334 9.334-13.334-9.334"></path>
</symbol>
<symbol id="phone" viewBox="0 0 32 32">
<path fill="none" stroke="#888" style="stroke: var(--color3, #888)" stroke-linejoin="round" stroke-linecap="round" stroke-miterlimit="4" stroke-width="2.1818" d="M27.879 21.837v3.562c0 0.003 0 0.006 0 0.010 0 1.311-1.063 2.374-2.374 2.374-0.076 0-0.151-0.004-0.225-0.011l0.009 0.001c-3.852-0.43-7.331-1.73-10.332-3.7l0.089 0.055c-2.887-1.854-5.27-4.237-7.068-7.033l-0.055-0.092c-1.921-2.926-3.222-6.424-3.634-10.189l-0.009-0.105c-0.006-0.064-0.010-0.139-0.010-0.214 0-1.311 1.061-2.373 2.372-2.375h3.561c0.007-0 0.015-0 0.023-0 1.194 0 2.182 0.882 2.349 2.029l0.002 0.013c0.15 1.14 0.429 2.26 0.831 3.337 0.096 0.248 0.152 0.536 0.152 0.836 0 0.651-0.262 1.241-0.686 1.67l-1.507 1.507c1.72 2.989 4.134 5.403 7.030 7.075l0.092 0.049 1.508-1.508c0.429-0.424 1.018-0.686 1.669-0.686 0.3 0 0.587 0.056 0.852 0.157l-0.016-0.006c1.076 0.401 2.196 0.681 3.335 0.831 1.161 0.168 2.043 1.156 2.043 2.351 0 0.021-0 0.043-0.001 0.064l0-0.003z"></path>
</symbol>
<symbol id="telegram" viewBox="0 0 32 32">
<path fill="#fff" style="fill: var(--color2, #fff)" d="M13.418 19.181l-0.397 5.584c0.568 0 0.814-0.243 1.109-0.536l2.662-2.544 5.52 4.040c1.011 0.563 1.723 0.267 1.997-0.931l3.622-16.973c0.322-1.496-0.541-2.080-1.526-1.714l-21.291 8.149c-1.453 0.563-1.43 1.374-0.246 1.741l5.443 1.693 12.643-7.91c0.595-0.395 1.136-0.176 0.691 0.218l-10.227 9.184z"></path>
</symbol>
<symbol id="twitter" viewBox="0 0 32 32">
<path fill="#fff" style="fill: var(--color2, #fff)" d="M29.547 8.456c-0.876 0.402-1.893 0.692-2.96 0.818l-0.048 0.005c1.085-0.654 1.901-1.661 2.297-2.859l0.011-0.037c-0.96 0.577-2.077 1.018-3.266 1.259l-0.068 0.012c-0.958-1.021-2.316-1.658-3.823-1.658-2.892 0-5.237 2.345-5.237 5.237 0 0.426 0.051 0.841 0.147 1.238l-0.007-0.036c-4.366-0.227-8.207-2.3-10.787-5.446l-0.021-0.026c-0.447 0.755-0.711 1.664-0.711 2.634 0 1.812 0.92 3.408 2.317 4.349l0.019 0.012c-0.875-0.029-1.688-0.268-2.399-0.668l0.026 0.014v0.064c0 2.527 1.789 4.636 4.169 5.13l0.034 0.006c-0.417 0.12-0.896 0.19-1.391 0.19-0.347 0-0.687-0.034-1.015-0.099l0.033 0.005c0.691 2.098 2.613 3.594 4.891 3.64l0.005 0c-1.773 1.399-4.039 2.244-6.502 2.244-0.444 0-0.882-0.027-1.312-0.081l0.051 0.005c2.266 1.475 5.039 2.352 8.017 2.352 0.005 0 0.011 0 0.016 0h-0.001c9.642 0 14.909-7.984 14.909-14.904 0-0.224-0.010-0.458-0.019-0.682 1.033-0.751 1.904-1.651 2.6-2.679l0.024-0.038z"></path>
</symbol>
<symbol id="user" viewBox="0 0 32 32">
<path fill="none" stroke="#888" style="stroke: var(--color3, #888)" stroke-linejoin="round" stroke-linecap="round" stroke-miterlimit="4" stroke-width="3.5556" d="M26.667 28v-2.667c0-2.946-2.388-5.333-5.333-5.333v0h-10.667c-2.946 0-5.333 2.388-5.333 5.333v0 2.667M16 14.667c2.946 0 5.333-2.388 5.333-5.333s-2.388-5.333-5.333-5.333v0c-2.946 0-5.333 2.388-5.333 5.333s2.388 5.333 5.333 5.333v0z"></path>
</symbol>
<symbol id="vk" viewBox="0 0 32 32">
<path fill="#fff" style="fill: var(--color2, #fff)" d="M29.851 23.467c-0.034-0.080-0.067-0.144-0.102-0.206l0.006 0.011c-0.485-0.938-1.413-2.090-2.784-3.454l-0.027-0.032-0.030-0.030h-0.014c-0.622-0.635-1.016-1.062-1.181-1.282-0.302-0.416-0.368-0.838-0.205-1.266 0.117-0.323 0.555-1.006 1.312-2.048 0.4-0.552 0.715-0.995 0.949-1.328 1.68-2.397 2.41-3.928 2.186-4.595l-0.086-0.155c-0.058-0.096-0.208-0.181-0.451-0.259-0.243-0.077-0.555-0.091-0.934-0.038l-4.198 0.032c-0.067-0.027-0.165-0.024-0.291 0.006l-0.189 0.048-0.074 0.038-0.058 0.048c-0.063 0.045-0.116 0.099-0.159 0.161l-0.001 0.002c-0.058 0.079-0.107 0.169-0.143 0.266l-0.002 0.008c-0.5 1.384-1.027 2.544-1.631 3.656l0.069-0.139c-0.358 0.646-0.688 1.206-0.992 1.68-0.242 0.395-0.491 0.737-0.766 1.057l0.009-0.011c-0.203 0.224-0.389 0.405-0.554 0.539-0.166 0.136-0.291 0.192-0.379 0.173-0.152-0.036-0.235-0.058-0.318-0.081l0.070 0.017c-0.139-0.098-0.25-0.227-0.325-0.377l-0.003-0.006c-0.087-0.177-0.146-0.383-0.167-0.601l-0.001-0.007c-0.024-0.18-0.043-0.399-0.051-0.62l-0-0.013c-0.001-0.068-0.002-0.147-0.002-0.227 0-0.185 0.004-0.368 0.011-0.551l-0.001 0.026c0.010-0.322 0.016-0.541 0.016-0.656 0-0.395 0.006-0.826 0.021-1.288l0.035-1.102c0.011-0.272 0.016-0.557 0.016-0.859 0-0.304-0.018-0.539-0.051-0.712-0.038-0.19-0.091-0.357-0.16-0.516l0.006 0.017c-0.063-0.155-0.166-0.283-0.297-0.374l-0.003-0.002c-0.14-0.092-0.303-0.164-0.477-0.209l-0.011-0.002c-0.515-0.125-1.171-0.192-1.968-0.203-1.808-0.021-2.97 0.106-3.485 0.376-0.203 0.114-0.389 0.272-0.554 0.469-0.176 0.229-0.198 0.354-0.072 0.374 0.582 0.094 0.995 0.318 1.238 0.672l0.088 0.189c0.067 0.134 0.136 0.374 0.203 0.718 0.069 0.344 0.112 0.723 0.131 1.141 0.048 0.76 0.048 1.411 0 1.952-0.048 0.544-0.094 0.965-0.138 1.267-0.049 0.404-0.181 0.77-0.379 1.090l0.007-0.011c-0.019 0.031-0.043 0.057-0.071 0.078l-0.001 0.001c-0.116 0.050-0.251 0.078-0.393 0.078-0 0-0 0-0.001 0h0c-0.136 0-0.301-0.074-0.496-0.219-0.227-0.178-0.425-0.376-0.599-0.594l-0.006-0.007c-0.246-0.312-0.48-0.663-0.686-1.031l-0.021-0.041c-0.247-0.424-0.519-0.957-0.767-1.504l-0.049-0.12-0.234-0.453c-0.102-0.182-0.301-0.6-0.494-1.022l-0.103-0.251c-0.178-0.367-0.405-0.902-0.613-1.445l-0.059-0.175c-0.066-0.203-0.188-0.373-0.347-0.498l-0.002-0.002-0.074-0.048c-0.161-0.112-0.353-0.194-0.559-0.232l-0.009-0.001-3.995 0.032c-0.408 0-0.685 0.098-0.832 0.296l-0.058 0.094c-0.028 0.063-0.044 0.137-0.044 0.214 0 0.013 0 0.025 0.001 0.037l-0-0.002c0 0.115 0.029 0.256 0.088 0.422 0.582 1.469 1.216 2.886 1.902 4.251 0.685 1.365 1.28 2.464 1.786 3.296 0.58 0.959 1.090 1.73 1.626 2.48l-0.081-0.119c0.525 0.739 0.872 1.213 1.042 1.422 0.17 0.208 0.304 0.365 0.4 0.469l0.366 0.374c0.232 0.25 0.576 0.55 1.027 0.899s0.952 0.693 1.501 1.032c0.55 0.338 1.189 0.614 1.918 0.827 0.54 0.17 1.16 0.268 1.803 0.268 0.114 0 0.228-0.003 0.34-0.009l-0.016 0.001h1.677c0.339-0.032 0.597-0.147 0.773-0.344l0.058-0.080c0.047-0.083 0.084-0.179 0.107-0.281l0.001-0.007c0.033-0.124 0.051-0.267 0.051-0.414 0-0.006-0-0.012-0-0.017v0.001c-0.010-0.448 0.022-0.851 0.096-1.21 0.072-0.36 0.154-0.63 0.246-0.813 0.138-0.275 0.327-0.504 0.557-0.685l0.004-0.003c0.032-0.018 0.071-0.037 0.111-0.052l0.006-0.002c0.234-0.083 0.507-0.003 0.824 0.242 0.315 0.245 0.613 0.547 0.89 0.907s0.608 0.763 0.998 1.211c0.389 0.448 0.728 0.781 1.021 1l0.291 0.187c0.194 0.125 0.448 0.24 0.758 0.344 0.163 0.064 0.352 0.102 0.549 0.102 0.094 0 0.187-0.009 0.276-0.025l-0.009 0.001 3.731-0.062c0.37 0 0.656-0.066 0.861-0.195 0.203-0.131 0.325-0.274 0.365-0.43 0.020-0.084 0.031-0.181 0.031-0.281 0-0.089-0.009-0.175-0.026-0.259l0.001 0.008c-0.022-0.156-0.058-0.295-0.107-0.429l0.005 0.014z"></path>
</symbol>
<symbol id="youtube" viewBox="0 0 32 32">
<path fill="#fff" style="fill: var(--color2, #fff)" d="M29.424 8.934c-0.323-1.147-1.269-2.051-2.469-2.362-2.192-0.573-10.955-0.573-10.955-0.573s-8.765 0-10.955 0.552c-1.176 0.309-2.146 1.235-2.469 2.382-0.576 2.096-0.576 6.442-0.576 6.442s0 4.368 0.576 6.442c0.323 1.147 1.269 2.053 2.469 2.362 2.214 0.573 10.955 0.573 10.955 0.573s8.765 0 10.955-0.552c1.2-0.309 2.144-1.213 2.469-2.36 0.576-2.096 0.576-6.442 0.576-6.442s0.022-4.368-0.576-6.464zM13.208 19.392v-8.032l7.288 4.016-7.288 4.016z"></path>
</symbol>
</defs>
</svg>
